<svg width="305" height="305" viewBox="0 0 305 305" fill="none" xmlns="http://www.w3.org/2000/svg">
<path d="M241.458 152.5C241.458 179.95 229.004 205.367 207.527 222.396C198.758 229.258 193.04 238.281 191.26 247.94C191.006 247.812 190.879 247.812 190.625 247.812H114.375C114.121 247.812 113.74 247.812 113.485 247.94C111.706 237.9 106.496 229.131 98.998 223.54C71.2938 202.571 58.3313 168.258 65.448 133.692C72.4376 100.015 99.7605 72.5646 133.438 65.575C160.252 59.8562 187.702 66.4646 208.544 83.3667C229.513 100.396 241.458 125.558 241.458 152.5Z" fill="#EAEAEA"/>
<path d="M191.26 247.94C190.879 250.1 190.625 252.26 190.625 254.548V282.76C190.625 294.96 180.585 305 168.385 305H136.615C125.94 305 114.375 296.867 114.375 279.075V256.581C114.375 253.658 114.121 250.735 113.485 247.94C113.74 247.813 114.121 247.812 114.375 247.812H190.625C190.879 247.812 191.006 247.813 191.26 247.94Z" fill="#747474"/>
<path d="M200.156 158.854C194.895 158.854 190.625 154.584 190.625 149.323C190.625 130.044 174.956 114.375 155.677 114.375C150.416 114.375 146.146 110.105 146.146 104.844C146.146 99.5825 150.416 95.3125 155.677 95.3125C185.453 95.3125 209.687 119.547 209.687 149.323C209.687 154.584 205.417 158.854 200.156 158.854Z" fill="#747474"/>
</svg>
