<svg width="305" height="305" viewBox="0 0 305 305" fill="none" xmlns="http://www.w3.org/2000/svg">
<g clip-path="url(#clip0_1148_5)">
<path d="M152.5 43.9327C147.239 43.9327 142.969 39.6627 142.969 34.4015V9.53125C142.969 4.27 147.239 0 152.5 0C157.761 0 162.031 4.27 162.031 9.53125V34.4015C162.031 39.6627 157.761 43.9327 152.5 43.9327Z" fill="#FABE0E"/>
<path d="M236.006 78.5249C233.566 78.5249 231.126 77.5972 229.271 75.729C225.548 72.0055 225.548 65.969 229.271 62.2455L246.859 44.6572C250.583 40.9336 256.619 40.9336 260.343 44.6572C264.066 48.3807 264.066 54.4172 260.343 58.1407L242.755 75.729C240.886 77.5845 238.446 78.5249 236.006 78.5249Z" fill="#FABE0E"/>
<path d="M295.469 162.031H270.599C265.337 162.031 261.067 157.761 261.067 152.5C261.067 147.239 265.337 142.969 270.599 142.969H295.469C300.73 142.969 305 147.239 305 152.5C305 157.761 300.73 162.031 295.469 162.031Z" fill="#FABE0E"/>
<path d="M253.595 263.126C251.155 263.126 248.715 262.198 246.859 260.33L229.271 242.742C225.548 239.018 225.548 232.982 229.271 229.258C232.995 225.535 239.031 225.535 242.755 229.258L260.343 246.847C264.066 250.57 264.066 256.607 260.343 260.33C258.475 262.198 256.035 263.126 253.595 263.126Z" fill="#FABE0E"/>
<path d="M51.4053 263.126C48.9653 263.126 46.5253 262.198 44.6699 260.33C40.9463 256.607 40.9463 250.57 44.6699 246.847L62.2582 229.258C65.9817 225.535 72.0182 225.535 75.7417 229.258C79.4653 232.982 79.4653 239.018 75.7417 242.742L58.1534 260.33C56.2853 262.198 53.8453 263.126 51.4053 263.126Z" fill="#FABE0E"/>
<path d="M34.4015 162.031H9.53125C4.27 162.031 0 157.761 0 152.5C0 147.239 4.27 142.969 9.53125 142.969H34.4015C39.6627 142.969 43.9327 147.239 43.9327 152.5C43.9327 157.761 39.6627 162.031 34.4015 162.031Z" fill="#FABE0E"/>
<path d="M68.9936 78.5249C66.5536 78.5249 64.1136 77.5972 62.2582 75.729L44.6699 58.1407C40.9463 54.4172 40.9463 48.3807 44.6699 44.6572C48.3934 40.9336 54.4299 40.9336 58.1534 44.6572L75.7417 62.2455C79.4653 65.969 79.4653 72.0055 75.7417 75.729C73.8609 77.5845 71.4336 78.5249 68.9936 78.5249Z" fill="#FABE0E"/>
<path d="M241.458 152.5C241.458 179.95 229.004 205.367 207.527 222.396C198.758 229.258 193.04 238.281 191.26 247.94C191.006 247.812 190.879 247.812 190.625 247.812H114.375C114.121 247.812 113.74 247.812 113.485 247.94C111.706 237.9 106.496 229.131 98.998 223.54C71.2938 202.571 58.3313 168.258 65.448 133.692C72.4376 100.015 99.7605 72.5646 133.438 65.575C160.252 59.8562 187.702 66.4646 208.544 83.3667C229.513 100.396 241.458 125.558 241.458 152.5Z" fill="#FABE0E"/>
<path d="M191.26 247.94C190.879 250.1 190.625 252.26 190.625 254.548V282.76C190.625 294.96 180.585 305 168.385 305H136.615C125.94 305 114.375 296.867 114.375 279.075V256.581C114.375 253.658 114.121 250.735 113.485 247.94C113.74 247.813 114.121 247.812 114.375 247.812H190.625C190.879 247.812 191.006 247.813 191.26 247.94Z" fill="#7A7A7A"/>
<path d="M200.156 158.854C194.895 158.854 190.625 154.584 190.625 149.323C190.625 130.044 174.956 114.375 155.677 114.375C150.416 114.375 146.146 110.105 146.146 104.844C146.146 99.5825 150.416 95.3125 155.677 95.3125C185.453 95.3125 209.688 119.547 209.688 149.323C209.688 154.584 205.418 158.854 200.156 158.854Z" fill="#FFD54F"/>
</g>
<defs>
<clipPath id="clip0_1148_5">
<rect width="305" height="305" fill="white"/>
</clipPath>
</defs>
</svg>
